<svg xmlns="http://www.w3.org/2000/svg" xmlns:xlink="http://www.w3.org/1999/xlink" width="19.613" height="24" viewBox="0 0 19.613 24">
  <defs>
    <clipPath id="clip-path">
      <path id="Caminho_336" data-name="Caminho 336" d="M116.188,195.237a3.613,3.613,0,1,1,3.613,3.613,3.613,3.613,0,0,1-3.613-3.613m-1.806,0a5.419,5.419,0,1,0,5.419-5.419,5.42,5.42,0,0,0-5.419,5.419m-.583,4.756a7.287,7.287,0,0,1-1.734-4.733,7.742,7.742,0,0,1,15.484,0v.139a7.279,7.279,0,0,1-1.655,4.5l-.093.115-5.993,7.007ZM110,195.26a9.361,9.361,0,0,0,2.217,6.06l6.609,7.729a1.29,1.29,0,0,0,1.961,0l6.6-7.714.012-.016a9.363,9.363,0,0,0,2.216-6.06,9.807,9.807,0,0,0-19.613,0" transform="translate(-110 -185.5)" fill="none"/>
    </clipPath>
  </defs>
  <g id="icon-location" clip-path="url(#clip-path)">
    <rect id="Retângulo_292" data-name="Retângulo 292" width="20.129" height="24.667" transform="translate(-0.258 -0.258)"/>
  </g>
</svg>
